<?xml version="1.0" encoding="UTF-8" standalone="no"?>
<!DOCTYPE svg PUBLIC "-//W3C//DTD SVG 1.1//EN"
 "http://www.w3.org/Graphics/SVG/1.1/DTD/svg11.dtd">
<!-- Generated by graphviz version 12.1.0 (20240811.2233)
 -->
<!-- Pages: 1 -->
<svg width="355pt" height="223pt"
 viewBox="0.00 0.00 354.50 222.50" xmlns="http://www.w3.org/2000/svg" xmlns:xlink="http://www.w3.org/1999/xlink">
<g id="graph0" class="graph" transform="scale(1 1) rotate(0) translate(4 218.5)">
<polygon fill="white" stroke="none" points="-4,4 -4,-218.5 350.5,-218.5 350.5,4 -4,4"/>
<!-- report -->
<g id="node1" class="node">
<title>report</title>
<polygon fill="none" stroke="blue" points="320.62,-214.5 216.12,-214.5 216.12,-178.5 326.62,-178.5 326.62,-208.5 320.62,-214.5"/>
<polyline fill="none" stroke="blue" points="320.62,-214.5 320.62,-208.5"/>
<polyline fill="none" stroke="blue" points="326.62,-208.5 320.62,-208.5"/>
<text text-anchor="middle" x="271.38" y="-191.82" font-family="Times,serif" font-size="14.00">report.rl.json</text>
</g>
<!-- script -->
<g id="node4" class="node">
<title>script</title>
<polygon fill="none" stroke="green" points="346.5,-125.25 196.25,-125.25 196.25,-89.25 346.5,-89.25 346.5,-125.25"/>
<text text-anchor="middle" x="271.38" y="-102.58" font-family="Times,serif" font-size="14.00">make_jira_issue.py</text>
</g>
<!-- report&#45;&gt;script -->
<g id="edge2" class="edge">
<title>report&#45;&gt;script</title>
<path fill="none" stroke="black" d="M271.38,-178.26C271.38,-166.43 271.38,-150.45 271.38,-136.75"/>
<polygon fill="black" stroke="black" points="274.88,-136.97 271.38,-126.97 267.88,-136.97 274.88,-136.97"/>
<text text-anchor="middle" x="275.88" y="-147.2" font-family="Times,serif" font-size="14.00">3</text>
</g>
<!-- ticket_template -->
<g id="node2" class="node">
<title>ticket_template</title>
<polygon fill="none" stroke="blue" points="154.75,-125.25 0,-125.25 0,-89.25 160.75,-89.25 160.75,-119.25 154.75,-125.25"/>
<polyline fill="none" stroke="blue" points="154.75,-125.25 154.75,-119.25"/>
<polyline fill="none" stroke="blue" points="160.75,-119.25 154.75,-119.25"/>
<text text-anchor="middle" x="80.38" y="-102.58" font-family="Times,serif" font-size="14.00">ticket_template.json</text>
</g>
<!-- ticket_template&#45;&gt;script -->
<g id="edge1" class="edge">
<title>ticket_template&#45;&gt;script</title>
<path fill="none" stroke="black" d="M160.95,-107.25C168.78,-107.25 176.6,-107.25 184.43,-107.25"/>
<polygon fill="black" stroke="black" points="184.38,-110.75 194.38,-107.25 184.38,-103.75 184.38,-110.75"/>
</g>
<!-- jira -->
<g id="node3" class="node">
<title>jira</title>
<polygon fill="none" stroke="orange" points="334.5,-36 212.25,-36 208.25,-32 208.25,0 330.5,0 334.5,-4 334.5,-36"/>
<polyline fill="none" stroke="orange" points="330.5,-32 208.25,-32"/>
<polyline fill="none" stroke="orange" points="330.5,-32 330.5,0"/>
<polyline fill="none" stroke="orange" points="330.5,-32 334.5,-36"/>
<text text-anchor="middle" x="271.38" y="-13.32" font-family="Times,serif" font-size="14.00">jira data center</text>
</g>
<!-- script&#45;&gt;jira -->
<g id="edge3" class="edge">
<title>script&#45;&gt;jira</title>
<path fill="none" stroke="black" d="M271.38,-89.01C271.38,-77.18 271.38,-61.2 271.38,-47.5"/>
<polygon fill="black" stroke="black" points="274.88,-47.72 271.38,-37.72 267.88,-47.72 274.88,-47.72"/>
<text text-anchor="middle" x="275.88" y="-57.95" font-family="Times,serif" font-size="14.00">4</text>
</g>
</g>
</svg>
